<mxfile host="app.diagrams.net" agent="Mozilla/5.0 (Windows NT 10.0; Win64; x64) AppleWebKit/537.36 (KHTML, like Gecko) Chrome/135.0.0.0 Safari/537.36" version="26.2.12">
  <diagram name="페이지-1" id="_yYYKU7SeKHebpRDZLGS">
    <mxGraphModel dx="985" dy="1705" grid="1" gridSize="10" guides="1" tooltips="1" connect="1" arrows="1" fold="1" page="1" pageScale="1" pageWidth="827" pageHeight="1169" math="0" shadow="0">
      <root>
        <mxCell id="0" />
        <mxCell id="1" parent="0" />
        <mxCell id="cNhhKtihBPQ82FRr4cSZ-33" style="edgeStyle=orthogonalEdgeStyle;rounded=0;orthogonalLoop=1;jettySize=auto;html=1;entryX=0.5;entryY=0;entryDx=0;entryDy=0;" edge="1" parent="1" source="cNhhKtihBPQ82FRr4cSZ-2" target="cNhhKtihBPQ82FRr4cSZ-31">
          <mxGeometry relative="1" as="geometry" />
        </mxCell>
        <mxCell id="cNhhKtihBPQ82FRr4cSZ-2" value="Customer" style="shape=umlActor;verticalLabelPosition=bottom;verticalAlign=top;html=1;outlineConnect=0;" vertex="1" parent="1">
          <mxGeometry x="414" y="-180" width="30" height="60" as="geometry" />
        </mxCell>
        <mxCell id="cNhhKtihBPQ82FRr4cSZ-3" value="Profitability Analysis" style="swimlane;whiteSpace=wrap;html=1;" vertex="1" parent="1">
          <mxGeometry x="40" width="320" height="240" as="geometry" />
        </mxCell>
        <mxCell id="cNhhKtihBPQ82FRr4cSZ-11" value="" style="edgeStyle=orthogonalEdgeStyle;rounded=0;orthogonalLoop=1;jettySize=auto;html=1;dashed=1;dashPattern=1 1;exitX=1;exitY=0.5;exitDx=0;exitDy=0;" edge="1" parent="cNhhKtihBPQ82FRr4cSZ-3" source="cNhhKtihBPQ82FRr4cSZ-73" target="cNhhKtihBPQ82FRr4cSZ-4">
          <mxGeometry relative="1" as="geometry">
            <mxPoint x="250" y="90" as="sourcePoint" />
          </mxGeometry>
        </mxCell>
        <mxCell id="cNhhKtihBPQ82FRr4cSZ-23" value="&amp;lt;&amp;lt;include&amp;gt;&amp;gt;" style="edgeLabel;html=1;align=center;verticalAlign=middle;resizable=0;points=[];" vertex="1" connectable="0" parent="cNhhKtihBPQ82FRr4cSZ-11">
          <mxGeometry x="-0.0966" y="1" relative="1" as="geometry">
            <mxPoint as="offset" />
          </mxGeometry>
        </mxCell>
        <mxCell id="cNhhKtihBPQ82FRr4cSZ-71" style="edgeStyle=orthogonalEdgeStyle;rounded=0;orthogonalLoop=1;jettySize=auto;html=1;entryX=0.5;entryY=1;entryDx=0;entryDy=0;" edge="1" parent="cNhhKtihBPQ82FRr4cSZ-3" source="cNhhKtihBPQ82FRr4cSZ-6" target="cNhhKtihBPQ82FRr4cSZ-72">
          <mxGeometry relative="1" as="geometry">
            <mxPoint x="177" y="100" as="targetPoint" />
          </mxGeometry>
        </mxCell>
        <mxCell id="cNhhKtihBPQ82FRr4cSZ-6" value="&lt;font style=&quot;font-size: 8px;&quot;&gt;Display Profitability Graph&lt;/font&gt;" style="ellipse;whiteSpace=wrap;html=1;" vertex="1" parent="cNhhKtihBPQ82FRr4cSZ-3">
          <mxGeometry x="10" y="140" width="74" height="40" as="geometry" />
        </mxCell>
        <mxCell id="cNhhKtihBPQ82FRr4cSZ-64" style="edgeStyle=orthogonalEdgeStyle;rounded=0;orthogonalLoop=1;jettySize=auto;html=1;exitX=1;exitY=0.5;exitDx=0;exitDy=0;entryX=1;entryY=0.5;entryDx=0;entryDy=0;" edge="1" parent="cNhhKtihBPQ82FRr4cSZ-3" source="cNhhKtihBPQ82FRr4cSZ-4" target="cNhhKtihBPQ82FRr4cSZ-72">
          <mxGeometry relative="1" as="geometry">
            <mxPoint x="270" y="50" as="targetPoint" />
          </mxGeometry>
        </mxCell>
        <mxCell id="cNhhKtihBPQ82FRr4cSZ-4" value="&lt;font style=&quot;font-size: 8px;&quot;&gt;View Expected&lt;br&gt;Profit and Loss Ratio&lt;/font&gt;" style="ellipse;whiteSpace=wrap;html=1;" vertex="1" parent="cNhhKtihBPQ82FRr4cSZ-3">
          <mxGeometry x="194" y="140" width="98" height="40" as="geometry" />
        </mxCell>
        <mxCell id="cNhhKtihBPQ82FRr4cSZ-1" value="&lt;font style=&quot;font-size: 8px;&quot;&gt;Save or Share Profit Data&lt;/font&gt;" style="ellipse;whiteSpace=wrap;html=1;" vertex="1" parent="cNhhKtihBPQ82FRr4cSZ-3">
          <mxGeometry x="120" y="195" width="74" height="40" as="geometry" />
        </mxCell>
        <mxCell id="cNhhKtihBPQ82FRr4cSZ-26" value="" style="endArrow=classic;html=1;rounded=0;entryX=0;entryY=0.5;entryDx=0;entryDy=0;exitX=0.5;exitY=1;exitDx=0;exitDy=0;" edge="1" parent="cNhhKtihBPQ82FRr4cSZ-3" source="cNhhKtihBPQ82FRr4cSZ-6" target="cNhhKtihBPQ82FRr4cSZ-1">
          <mxGeometry relative="1" as="geometry">
            <mxPoint x="90" y="180" as="sourcePoint" />
            <mxPoint x="56.72000000000003" y="215" as="targetPoint" />
          </mxGeometry>
        </mxCell>
        <mxCell id="cNhhKtihBPQ82FRr4cSZ-27" value="&amp;lt;&amp;lt;extend&amp;gt;&amp;gt;" style="edgeLabel;resizable=0;html=1;;align=center;verticalAlign=middle;" connectable="0" vertex="1" parent="cNhhKtihBPQ82FRr4cSZ-26">
          <mxGeometry relative="1" as="geometry" />
        </mxCell>
        <mxCell id="cNhhKtihBPQ82FRr4cSZ-68" value="" style="endArrow=classic;html=1;rounded=0;exitX=0.5;exitY=1;exitDx=0;exitDy=0;entryX=1;entryY=0.5;entryDx=0;entryDy=0;" edge="1" parent="cNhhKtihBPQ82FRr4cSZ-3" source="cNhhKtihBPQ82FRr4cSZ-4" target="cNhhKtihBPQ82FRr4cSZ-1">
          <mxGeometry relative="1" as="geometry">
            <mxPoint x="580" y="-90.69" as="sourcePoint" />
            <mxPoint x="700" y="-90.69" as="targetPoint" />
          </mxGeometry>
        </mxCell>
        <mxCell id="cNhhKtihBPQ82FRr4cSZ-69" value="&amp;lt;&amp;lt;extend&amp;gt;&amp;gt;" style="edgeLabel;resizable=0;html=1;;align=center;verticalAlign=middle;" connectable="0" vertex="1" parent="cNhhKtihBPQ82FRr4cSZ-68">
          <mxGeometry relative="1" as="geometry">
            <mxPoint as="offset" />
          </mxGeometry>
        </mxCell>
        <mxCell id="cNhhKtihBPQ82FRr4cSZ-72" value="&lt;span style=&quot;font-size: 8px;&quot;&gt;Set Duration(data) Range&lt;/span&gt;" style="ellipse;whiteSpace=wrap;html=1;" vertex="1" parent="cNhhKtihBPQ82FRr4cSZ-3">
          <mxGeometry x="10" y="30" width="74" height="40" as="geometry" />
        </mxCell>
        <mxCell id="cNhhKtihBPQ82FRr4cSZ-73" value="&lt;font style=&quot;font-size: 9px;&quot;&gt;Calculate Average Profit&lt;/font&gt;" style="ellipse;whiteSpace=wrap;html=1;" vertex="1" parent="cNhhKtihBPQ82FRr4cSZ-3">
          <mxGeometry x="123" y="70" width="74" height="40" as="geometry" />
        </mxCell>
        <mxCell id="cNhhKtihBPQ82FRr4cSZ-62" style="edgeStyle=orthogonalEdgeStyle;rounded=0;orthogonalLoop=1;jettySize=auto;html=1;entryX=0;entryY=0.5;entryDx=0;entryDy=0;exitX=1;exitY=1;exitDx=0;exitDy=0;" edge="1" parent="cNhhKtihBPQ82FRr4cSZ-3" source="cNhhKtihBPQ82FRr4cSZ-72" target="cNhhKtihBPQ82FRr4cSZ-73">
          <mxGeometry relative="1" as="geometry">
            <mxPoint x="93.99994500590446" y="60.034482758620925" as="sourcePoint" />
            <mxPoint x="140.00000000000182" y="80" as="targetPoint" />
          </mxGeometry>
        </mxCell>
        <mxCell id="cNhhKtihBPQ82FRr4cSZ-16" style="edgeStyle=orthogonalEdgeStyle;rounded=0;orthogonalLoop=1;jettySize=auto;html=1;dashed=1;dashPattern=1 2;exitX=0.175;exitY=0.97;exitDx=0;exitDy=0;exitPerimeter=0;entryX=1;entryY=0.5;entryDx=0;entryDy=0;" edge="1" parent="cNhhKtihBPQ82FRr4cSZ-3" source="cNhhKtihBPQ82FRr4cSZ-73" target="cNhhKtihBPQ82FRr4cSZ-6">
          <mxGeometry relative="1" as="geometry">
            <mxPoint x="154" y="80" as="sourcePoint" />
            <mxPoint x="130" y="140" as="targetPoint" />
          </mxGeometry>
        </mxCell>
        <mxCell id="cNhhKtihBPQ82FRr4cSZ-29" value="&amp;lt;&amp;lt;include&amp;gt;&amp;gt;" style="edgeLabel;html=1;align=center;verticalAlign=middle;resizable=0;points=[];" vertex="1" connectable="0" parent="cNhhKtihBPQ82FRr4cSZ-16">
          <mxGeometry x="-0.3022" y="-1" relative="1" as="geometry">
            <mxPoint y="18" as="offset" />
          </mxGeometry>
        </mxCell>
        <mxCell id="cNhhKtihBPQ82FRr4cSZ-17" value="News and Makret Trends" style="swimlane;whiteSpace=wrap;html=1;" vertex="1" parent="1">
          <mxGeometry x="530" y="10" width="210" height="210" as="geometry" />
        </mxCell>
        <mxCell id="cNhhKtihBPQ82FRr4cSZ-57" style="edgeStyle=orthogonalEdgeStyle;rounded=0;orthogonalLoop=1;jettySize=auto;html=1;entryX=0;entryY=0.5;entryDx=0;entryDy=0;" edge="1" parent="cNhhKtihBPQ82FRr4cSZ-17" source="cNhhKtihBPQ82FRr4cSZ-43" target="cNhhKtihBPQ82FRr4cSZ-45">
          <mxGeometry relative="1" as="geometry" />
        </mxCell>
        <mxCell id="cNhhKtihBPQ82FRr4cSZ-43" value="&lt;span style=&quot;font-size: 8px;&quot;&gt;Collect News&lt;/span&gt;" style="ellipse;whiteSpace=wrap;html=1;" vertex="1" parent="cNhhKtihBPQ82FRr4cSZ-17">
          <mxGeometry x="10" y="110" width="74" height="40" as="geometry" />
        </mxCell>
        <mxCell id="cNhhKtihBPQ82FRr4cSZ-45" value="&lt;font style=&quot;font-size: 8px;&quot;&gt;View News Summary&lt;/font&gt;" style="ellipse;whiteSpace=wrap;html=1;" vertex="1" parent="cNhhKtihBPQ82FRr4cSZ-17">
          <mxGeometry x="70" y="150" width="74" height="40" as="geometry" />
        </mxCell>
        <mxCell id="cNhhKtihBPQ82FRr4cSZ-58" style="edgeStyle=orthogonalEdgeStyle;rounded=0;orthogonalLoop=1;jettySize=auto;html=1;entryX=1;entryY=0.5;entryDx=0;entryDy=0;" edge="1" parent="cNhhKtihBPQ82FRr4cSZ-17" source="cNhhKtihBPQ82FRr4cSZ-46" target="cNhhKtihBPQ82FRr4cSZ-45">
          <mxGeometry relative="1" as="geometry" />
        </mxCell>
        <mxCell id="cNhhKtihBPQ82FRr4cSZ-46" value="&lt;font style=&quot;font-size: 8px;&quot;&gt;Analyze News&lt;br&gt;Keywords&lt;/font&gt;" style="ellipse;whiteSpace=wrap;html=1;" vertex="1" parent="cNhhKtihBPQ82FRr4cSZ-17">
          <mxGeometry x="126" y="110" width="74" height="40" as="geometry" />
        </mxCell>
        <mxCell id="cNhhKtihBPQ82FRr4cSZ-54" value="" style="edgeStyle=orthogonalEdgeStyle;rounded=0;orthogonalLoop=1;jettySize=auto;html=1;" edge="1" parent="cNhhKtihBPQ82FRr4cSZ-17" source="cNhhKtihBPQ82FRr4cSZ-48" target="cNhhKtihBPQ82FRr4cSZ-46">
          <mxGeometry relative="1" as="geometry" />
        </mxCell>
        <mxCell id="cNhhKtihBPQ82FRr4cSZ-55" style="edgeStyle=orthogonalEdgeStyle;rounded=0;orthogonalLoop=1;jettySize=auto;html=1;entryX=0.5;entryY=0;entryDx=0;entryDy=0;" edge="1" parent="cNhhKtihBPQ82FRr4cSZ-17" source="cNhhKtihBPQ82FRr4cSZ-48" target="cNhhKtihBPQ82FRr4cSZ-43">
          <mxGeometry relative="1" as="geometry" />
        </mxCell>
        <mxCell id="cNhhKtihBPQ82FRr4cSZ-48" value="&lt;span style=&quot;font-size: 8px;&quot;&gt;Filter News by Cryptocurrency&lt;/span&gt;" style="ellipse;whiteSpace=wrap;html=1;" vertex="1" parent="cNhhKtihBPQ82FRr4cSZ-17">
          <mxGeometry x="68" y="30" width="74" height="40" as="geometry" />
        </mxCell>
        <mxCell id="cNhhKtihBPQ82FRr4cSZ-53" style="edgeStyle=orthogonalEdgeStyle;rounded=0;orthogonalLoop=1;jettySize=auto;html=1;entryX=0.5;entryY=0;entryDx=0;entryDy=0;" edge="1" parent="1" source="cNhhKtihBPQ82FRr4cSZ-31" target="cNhhKtihBPQ82FRr4cSZ-48">
          <mxGeometry relative="1" as="geometry" />
        </mxCell>
        <mxCell id="cNhhKtihBPQ82FRr4cSZ-59" style="edgeStyle=orthogonalEdgeStyle;rounded=0;orthogonalLoop=1;jettySize=auto;html=1;entryX=0.5;entryY=0;entryDx=0;entryDy=0;" edge="1" parent="1" source="cNhhKtihBPQ82FRr4cSZ-31" target="cNhhKtihBPQ82FRr4cSZ-72">
          <mxGeometry relative="1" as="geometry">
            <mxPoint x="107" y="20" as="targetPoint" />
          </mxGeometry>
        </mxCell>
        <mxCell id="cNhhKtihBPQ82FRr4cSZ-31" value="&lt;font style=&quot;font-size: 9px;&quot;&gt;Choose Crypto coin&lt;/font&gt;" style="ellipse;whiteSpace=wrap;html=1;" vertex="1" parent="1">
          <mxGeometry x="392" y="-60" width="74" height="40" as="geometry" />
        </mxCell>
        <mxCell id="cNhhKtihBPQ82FRr4cSZ-34" value="" style="edgeStyle=orthogonalEdgeStyle;rounded=0;orthogonalLoop=1;jettySize=auto;html=1;dashed=1;dashPattern=1 1;" edge="1" parent="1">
          <mxGeometry relative="1" as="geometry">
            <mxPoint x="620" y="-140.69" as="sourcePoint" />
            <mxPoint x="738" y="-140.69" as="targetPoint" />
          </mxGeometry>
        </mxCell>
        <mxCell id="cNhhKtihBPQ82FRr4cSZ-35" value="&amp;lt;&amp;lt;include&amp;gt;&amp;gt;" style="edgeLabel;html=1;align=center;verticalAlign=middle;resizable=0;points=[];" vertex="1" connectable="0" parent="cNhhKtihBPQ82FRr4cSZ-34">
          <mxGeometry x="-0.0966" y="1" relative="1" as="geometry">
            <mxPoint x="10" as="offset" />
          </mxGeometry>
        </mxCell>
        <mxCell id="cNhhKtihBPQ82FRr4cSZ-37" value="" style="endArrow=classic;html=1;rounded=0;" edge="1" parent="1">
          <mxGeometry relative="1" as="geometry">
            <mxPoint x="620" y="-120.69" as="sourcePoint" />
            <mxPoint x="740" y="-120.69" as="targetPoint" />
          </mxGeometry>
        </mxCell>
        <mxCell id="cNhhKtihBPQ82FRr4cSZ-38" value="&amp;lt;&amp;lt;extend&amp;gt;&amp;gt;" style="edgeLabel;resizable=0;html=1;;align=center;verticalAlign=middle;" connectable="0" vertex="1" parent="cNhhKtihBPQ82FRr4cSZ-37">
          <mxGeometry relative="1" as="geometry">
            <mxPoint as="offset" />
          </mxGeometry>
        </mxCell>
        <mxCell id="cNhhKtihBPQ82FRr4cSZ-74" value="Position Recommendation" style="swimlane;whiteSpace=wrap;html=1;" vertex="1" parent="1">
          <mxGeometry x="220" y="270" width="190" height="380" as="geometry" />
        </mxCell>
        <mxCell id="cNhhKtihBPQ82FRr4cSZ-79" value="&lt;font style=&quot;font-size: 8px;&quot;&gt;Analyze Market Flow&lt;/font&gt;" style="ellipse;whiteSpace=wrap;html=1;" vertex="1" parent="cNhhKtihBPQ82FRr4cSZ-74">
          <mxGeometry x="64" y="30" width="74" height="40" as="geometry" />
        </mxCell>
        <mxCell id="cNhhKtihBPQ82FRr4cSZ-78" value="&lt;span style=&quot;font-size: 8px;&quot;&gt;Receive Long/Short Recommandation&lt;/span&gt;" style="ellipse;whiteSpace=wrap;html=1;" vertex="1" parent="cNhhKtihBPQ82FRr4cSZ-74">
          <mxGeometry x="60" y="95" width="82" height="50" as="geometry" />
        </mxCell>
        <mxCell id="cNhhKtihBPQ82FRr4cSZ-77" value="&lt;font style=&quot;font-size: 8px;&quot;&gt;View Recommenation Confidence&lt;/font&gt;" style="ellipse;whiteSpace=wrap;html=1;" vertex="1" parent="cNhhKtihBPQ82FRr4cSZ-74">
          <mxGeometry x="56" y="160" width="90" height="50" as="geometry" />
        </mxCell>
        <mxCell id="cNhhKtihBPQ82FRr4cSZ-76" value="&lt;span style=&quot;font-size: 8px;&quot;&gt;View Recommendation Indicators&lt;/span&gt;" style="ellipse;whiteSpace=wrap;html=1;" vertex="1" parent="cNhhKtihBPQ82FRr4cSZ-74">
          <mxGeometry x="64" y="230" width="74" height="40" as="geometry" />
        </mxCell>
        <mxCell id="cNhhKtihBPQ82FRr4cSZ-75" value="&lt;font style=&quot;font-size: 8px;&quot;&gt;View News Summary&lt;/font&gt;" style="ellipse;whiteSpace=wrap;html=1;" vertex="1" parent="1">
          <mxGeometry x="598" y="360" width="74" height="40" as="geometry" />
        </mxCell>
      </root>
    </mxGraphModel>
  </diagram>
</mxfile>
